# xmcd
#
# Track frame offsets:
#	182
#	11187
#	29825
#	43142
#	56615
#	71100
#	92025
#	104357
#	121435
#	136462
#	155085
#	169117
#
# Disc length: 2423 seconds
#
# Revision: 1
# Processed by: cddbd v1.5.2PL0 Copyright (c) Steve Scherf et al.
# Submitted via: audiograbber 1.83.01
#
DISCID=b309750c
DTITLE=George Hug - Stories
DYEAR=1900
DGENRE=
TTITLE0=Bayou Sam
TTITLE1=Daddy
TTITLE2=Love For Texas
TTITLE3=Cool Water
TTITLE4=The Daisies
TTITLE5=My Soul Is With You
TTITLE6=My Hear´t Full Of Sadness
TTITLE7=Four Seasons Of My life
TTITLE8=Make Belive Star
TTITLE9=Heaven´s Call
TTITLE10=Place In The Sun
TTITLE11=Disastrous Horse Ride
EXTD=
EXTT0=
EXTT1=
EXTT2=
EXTT3=
EXTT4=
EXTT5=
EXTT6=
EXTT7=
EXTT8=
EXTT9=
EXTT10=
EXTT11=
PLAYORDER=
